#N canvas 222 57 450 300 10;
#X text 56 28 Para filtrar los valores analogos;
#X obj 36 91 debounce 100;
#X obj 64 135 moses 0.1;
#X text 40 238 comment;
#X obj 278 59 inlet;
#X obj 218 135 bng 15 250 50 0 empty empty empty 17 7 0 10 -262144
-1 -1;
#X obj 129 255 send play-madafaca-\$2;
#X obj 172 176 float \$1;
#X obj 302 105 select \$1;
#X obj 270 148 select \$2;
#X connect 1 0 2 0;
#X connect 2 1 5 0;
#X connect 4 0 1 0;
#X connect 4 0 8 0;
#X connect 4 0 9 0;
#X connect 5 0 7 0;
#X connect 7 0 6 0;
#X coords 0 -1 1 1 80 40 1 160 120;
