#N canvas 324 134 646 361 10;
#X obj -16 160 inlet~;
#X obj 34 161 inlet~;
#X obj -132 332 outlet~;
#X obj -48 331 outlet~;
#X obj 106 133 hsl 128 15 20 30000 1 0 empty empty Frecuencia -2 -8
0 10 -262144 -1 -1 0 1;
#X floatatom 103 154 7 0 0 0 - - -;
#X obj -131 273 multiplex~;
#X obj -50 275 multiplex~;
#X obj 380 105 tgl 15 0 empty empty empty 17 7 0 10 -262144 -1 -1 0
1;
#X obj -44 225 lop~;
#X obj 0 224 lop~;
#X connect 0 0 6 0;
#X connect 0 0 9 0;
#X connect 1 0 7 0;
#X connect 1 0 10 0;
#X connect 4 0 5 0;
#X connect 5 0 9 1;
#X connect 5 0 10 1;
#X connect 6 0 2 0;
#X connect 7 0 3 0;
#X connect 8 0 6 0;
#X connect 8 0 7 0;
#X connect 9 0 6 1;
#X connect 10 0 7 1;
#X coords 0 -1 1 1 300 80 1 100 100;
