#N canvas 634 179 645 550 10;
#X text 440 -127 Upper range;
#X text 350 -122 Lower range;
#X obj 363 -14 limit 0 1 0;
#X obj 214 -54 expr $f1*($f3-$f2)+$f2;
#X obj 214 -82 pow;
#X text 244 -130 Pow;
#X text 109 -136 Initial;
#X text 84 -251 Maps [0 \, 1] to an arbitrary range;
#X obj 132 -111 float \$4;
#X obj 229 -113 float \$5;
#X obj 352 -105 float \$2;
#X obj 442 -110 float \$3;
#X obj 259 -202 loadbang;
#X text -14 -129 "Public" signal;
#X text 120 46 Unmapped Signal;
#X text 350 50 Mapped signal;
#X obj 259 -176 t b b b b;
#X obj 363 35 outlet;
#X obj 136 31 outlet;
#X obj 32 -110 inlet;
#X text 82 -226 Creation parameters: lower range \, upper range \,
initial value \, pow;
#X connect 2 0 17 0;
#X connect 3 0 2 0;
#X connect 4 0 3 0;
#X connect 8 0 4 0;
#X connect 8 0 18 0;
#X connect 9 0 4 1;
#X connect 10 0 2 1;
#X connect 10 0 3 1;
#X connect 11 0 2 2;
#X connect 11 0 3 2;
#X connect 12 0 16 0;
#X connect 16 0 8 0;
#X connect 16 1 9 0;
#X connect 16 2 10 0;
#X connect 16 3 11 0;
#X connect 19 0 4 0;
#X connect 19 0 18 0;
#X coords 0 550 1 549 185 55 0;
