#N canvas 376 137 561 448 10;
#X obj 105 121 bng 15 250 50 0 empty empty empty 17 7 0 10 -4034 -1
-1;
#X obj 124 121 bng 15 250 50 0 empty empty empty 17 7 0 10 -4160 -1
-1;
#X symbolatom 145 121 25 0 0 0 - - -;
#X obj 105 -95 keyup;
#X obj 105 -64 select \$1;
#X obj 198 -99 receive from-arduino-digital;
#X obj 198 -38 select \$2;
#X obj 198 -69 list split 1;
#X obj 198 2 float;
#X obj 198 33 select 1;
#X obj 458 -95 inlet;
#X text 501 -96 Float;
#X floatatom 265 102 5 0 0 0 - - -;
#X text 9 -143 Parametros de creacion: numero de la tecla (qwerty)
\, numero del pin arduino \, canal 1 o 2;
#X obj 105 273 send play-madafaca-\$3;
#X obj 105 221 float;
#X connect 0 0 15 0;
#X connect 3 0 4 0;
#X connect 4 0 0 0;
#X connect 5 0 7 0;
#X connect 6 0 8 0;
#X connect 7 0 6 0;
#X connect 7 1 8 1;
#X connect 8 0 9 0;
#X connect 9 0 0 0;
#X connect 10 0 12 0;
#X connect 12 0 15 1;
#X connect 15 0 14 0;
#X coords 0 -1 1 1 200 40 1 100 100;
