#N canvas 559 145 561 448 10;
#X obj 105 121 bng 15 250 50 0 empty empty empty 17 7 0 10 -4034 -1
-1;
#X obj 124 121 bng 15 250 50 0 empty empty empty 17 7 0 10 -4160 -1
-1;
#X symbolatom 145 121 25 0 0 0 - - -;
#X obj 105 273 send a-donde?;
#X obj 105 221 symbol;
#X obj 105 -95 keyup;
#X obj 105 -64 select \$1;
#X text 9 -143 Parametros de creacion: numero de la tecla (qwerty)
\, numero del pin arduino;
#X obj 198 -99 receive from-arduino-digital;
#X obj 198 -38 select \$2;
#X obj 198 -69 list split 1;
#X obj 198 2 float;
#X obj 198 33 select 1;
#X obj 138 179 openpanel;
#X obj 167 212 split_path;
#X connect 0 0 4 0;
#X connect 1 0 13 0;
#X connect 4 0 3 0;
#X connect 5 0 6 0;
#X connect 6 0 0 0;
#X connect 8 0 10 0;
#X connect 9 0 11 0;
#X connect 10 0 9 0;
#X connect 10 1 11 1;
#X connect 11 0 12 0;
#X connect 12 0 0 0;
#X connect 13 0 14 0;
#X connect 13 0 4 1;
#X connect 14 1 2 0;
#X coords 0 -1 1 1 200 40 1 100 100;
