#N canvas 0 54 1280 746 10;
#X declare -lib pduino;
#N canvas 451 108 674 677 arduino-recieve 1;
#N canvas 70 233 525 433 serin 0;
#X obj 180 61 cnv 15 15 15 empty \$0-number-canvas 0 4 8 0 14 -233017
-1 0;
#X obj 200 225 s \$0-number-canvas;
#X obj 60 61 hradio 15 1 1 8 empty empty empty 0 -6 0 8 -225271 -1
-1 0;
#X obj 60 13 inlet;
#X msg 200 202 label \$1;
#X obj 200 180 makefilename %d;
#X obj 59 108 int;
#X msg 59 206 open \$1;
#X obj 59 377 outlet;
#X msg 201 306 set \$1 \$2;
#X obj 59 266 trigger bang anything;
#X obj 201 286 list;
#X obj 383 383 outlet;
#X obj 384 22 netreceive 34567;
#X obj 477 43 tgl 15 0 empty empty empty 0 -6 0 10 -262144 -1 -1 0
1;
#X obj 384 41 bng 15 250 50 0 empty empty empty 0 -6 0 10 -262144 -1
-1;
#X obj 187 24 delay 15000;
#X text 345 379 close;
#X text 209 4 for open/close automation in Makefile;
#X obj 184 95 bang;
#X obj 184 137 send ARDUINO_TEST_RESET;
#X msg 184 116 set 0;
#X connect 2 0 6 0;
#X connect 2 0 19 0;
#X connect 3 0 2 0;
#X connect 4 0 1 0;
#X connect 5 0 4 0;
#X connect 6 0 5 0;
#X connect 6 0 7 0;
#X connect 7 0 10 0;
#X connect 9 0 8 0;
#X connect 10 0 8 0;
#X connect 10 1 11 0;
#X connect 11 0 9 0;
#X connect 13 0 15 0;
#X connect 13 1 14 0;
#X connect 15 0 16 0;
#X connect 15 0 12 0;
#X connect 16 0 2 0;
#X connect 19 0 21 0;
#X connect 21 0 20 0;
#X coords 0 -1 1 1 136 17 1 60 60;
#X restore 107 117 pd serin;
#X obj 108 141 bng 15 250 50 0 empty empty Cerrar 17 7 0 10 -262144
-1 -1;
#X text 67 459 <-- argument sets port #;
#X obj 7 483 route analog digital string sysex;
#X msg 66 201 close;
#X msg 106 201 open 0;
#X obj 102 68 import pduino;
#X obj 7 459 arduino 1;
#X msg 7 200 devices;
#X msg 147 400 pinMode \$1 input;
#X msg 323 346 6;
#X msg 288 347 7;
#X msg 266 351 8;
#X msg 244 355 9;
#X msg 221 359 10;
#X msg 199 363 11;
#X msg 177 367 12;
#X msg 154 371 13;
#X obj 167 325 t b b b b b b b b;
#X text 281 323 Setea los pines digitales;
#X text 103 99 Escoja el Puerto Serial (Arduino);
#X obj 167 302 bng 15 250 50 0 empty empty empty 17 7 0 10 -262144
-1 -1;
#X obj 106 235 t b a;
#X obj 55 526 debounce 100;
#X obj 55 561 send from-arduino-digital;
#X obj 168 275 delay 1100;
#X connect 0 0 5 0;
#X connect 1 0 4 0;
#X connect 3 1 23 0;
#X connect 4 0 7 0;
#X connect 5 0 22 0;
#X connect 7 0 3 0;
#X connect 8 0 7 0;
#X connect 9 0 7 0;
#X connect 10 0 9 0;
#X connect 11 0 9 0;
#X connect 12 0 9 0;
#X connect 13 0 9 0;
#X connect 14 0 9 0;
#X connect 15 0 9 0;
#X connect 16 0 9 0;
#X connect 17 0 9 0;
#X connect 18 0 17 0;
#X connect 18 1 16 0;
#X connect 18 2 15 0;
#X connect 18 3 14 0;
#X connect 18 4 13 0;
#X connect 18 5 12 0;
#X connect 18 6 11 0;
#X connect 18 7 10 0;
#X connect 21 0 18 0;
#X connect 22 0 25 0;
#X connect 22 1 7 0;
#X connect 23 0 24 0;
#X connect 25 0 21 0;
#X coords 0 -1 1 1 150 60 1 100 100;
#X restore 17 -192 pd arduino-recieve;
#X obj 634 -91 pd/slot 113 6 1 P;
#X obj 429 -42 pd/slot 113 11 2 Q;
#X obj 19 -42 pd/slot 113 13 2 Q;
#X obj 223 -42 pd/slot 113 12 2 Q;
#X obj 635 -42 pd/slot 113 10 2 Q;
#X obj 429 -90 pd/slot 112 7 1 O;
#X obj 223 -93 pd/slot 111 8 1 I;
#X obj 18 -90 pd/slot 117 9 1 U;
#X obj 19 13 pd/a-gig-in-tokyo;
#X obj -60 -237;
#X obj 1113 424;
#N canvas 294 216 453 473 carpeta-samples 1;
#X obj 109 83 getdir;
#X msg 111 56 bang;
#X obj 108 136 list2symbol;
#X msg 178 77 symbol /;
#X obj 64 222 folder_list;
#X obj 67 19 t b b b b;
#X obj 174 47 s loadbang1;
#X obj 37 -10 t b b;
#X obj 37 -33 inlet;
#X text 73 -34 Bang;
#X obj 64 251 outlet;
#X msg 102 106 \$1 pd/audioloops/*;
#X connect 0 0 11 0;
#X connect 1 0 0 0;
#X connect 2 0 4 1;
#X connect 3 0 2 1;
#X connect 4 0 10 0;
#X connect 5 0 4 0;
#X connect 5 1 1 0;
#X connect 5 2 3 0;
#X connect 5 3 6 0;
#X connect 7 1 5 0;
#X connect 8 0 7 0;
#X connect 11 0 2 0;
#X restore 776 145 pd carpeta-samples;
#X obj 777 101 loadbang;
#X obj 839 100 bng 15 250 50 0 empty empty empty 17 7 0 10 -262144
-1 -1;
#X obj 770 200 print;
#X connect 12 0 15 0;
#X connect 13 0 12 0;
#X connect 14 0 12 0;
